<svg version="1" xmlns="http://www.w3.org/2000/svg" width="853.333" height="853.333" viewBox="0 0 640.000000 640.000000"><path d="M309 66c-3 1.1-5.6 2.5-5.8 3-.2.6-.9 1-1.6 1-1.8 0-8.2 7.6-10.5 12.5-1.7 3.7-3.5 11.2-3.3 14 .1.5.1 3.2.1 6 0 2.7 0 5.9.1 7 0 1.1 0 3.6-.1 5.5s-.1 4.2 0 5v7c-.1 3-.1 6.2 0 7 .1.8.1 3.1 0 5-.2 5.3-.2 5.4.1 6.5.1.5.2 4.1.1 7.9-.1 6.7-.1 6.8-2.6 6.4-1.4-.3-2.7-.2-3 .2-.2.4-2.5.4-4.9 0-2.5-.4-5.1-.3-5.8.1-.6.4-1.6.5-2.1.2-1.2-.7-21.5-.6-22.7.2-.6.3-1 .2-1-.2 0-.5-2.9-.6-6.5-.3s-6.5.3-6.5 0-7.2-.5-16-.5-16 .4-16 .8c0 .5-.4.5-1 .2-.5-.3-3.3-.5-6.2-.5h-7.3c-1.1 0-3.6 0-5.5.1s-4.1.1-4.7 0c-3.1-.3-4.1-.2-8.6.3-6.1.8-13.3 2.3-17.2 3.7-5.9 2.1-19.5 9-19.5 9.9 0 .5-.9 1.1-1.9 1.5-2.6.8-16.8 14.9-17.6 17.5-.3 1.1-1 2-1.5 2-1.9 0-10.2 18.8-11.9 27.2-1.3 6-2.3 13.6-2.2 15.8.1.8.1 3.1 0 5s-.1 4.1 0 4.7c.2 1.9.2 4.2.1 10.1 0 2.9.2 5.7.5 6.2.3.6.3 1-.2 1-.4 0-.7 7.1-.5 15.7.2 8.7.2 18 .1 20.8 0 2.7-.1 5.6 0 6.2.2 2 .3 20.1.2 27.3v5.5c0 2.2 0 4.9-.1 6-.4 10-.4 13.5 0 13.5.3 0 .4 2.8.2 6.2-.1 3.5-.2 10.6-.1 15.8 0 5.2 0 10.6-.1 12-.4 8.8-.4 14 .1 14 .3 0 .3 2-.1 4.5s-.4 4.8 0 5c.4.3.4 2.2 0 4.4s-.4 4.5 0 5.1c.4.7.4 2.7 0 4.6-.4 1.8-.5 3.5-.3 3.8.3.3.4 3.1.3 6.3-.2 7.3-.2 6.9-.1 12.8.1 2.7 0 7.8-.1 11.3-.2 3.4 0 6.2.3 6.2s.3 2-.1 4.5-.4 4.8 0 5c.4.3.4 2.2 0 4.4s-.4 4.5.1 5.2c.4.7.5 1.7.3 2.1-1 1.5-.1 27.4 1.1 32.3.4 1.6.8 3.7 1 4.5.2.8.4 1.6.5 1.7.2.2.3.7.4 1.1 0 .5 1.9 4.4 4 8.6 2.6 5.1 6.2 10 10.5 14.4 8.5 8.6 10.1 9.7 18.8 13.8 14.3 6.8 2.5 6.4 187.3 6.4 185.5 0 173.2.4 187.8-6.6 8.6-4.1 10.5-5.6 19-14.3 6.5-6.7 13.6-19.2 14.7-26 .3-1.9.8-3.9 1.2-4.4.3-.5.7-3.4.9-6.6.2-3.1.4-5.8.5-6.1.1-.3.1-.9 0-1.3-.2-1.3-.2-9.7.1-16.5.2-3.4 0-6.2-.3-6.2s-.3-2 .1-4.5.4-4.8 0-5c-.4-.3-.4-2.2 0-4.4s.4-4.5 0-5.1c-.4-.7-.4-2.7 0-4.6.4-1.8.5-3.5.3-3.8-.3-.3-.4-3.1-.3-6.3.2-7.3.2-6.9.1-12.8-.1-2.8 0-7.8.1-11.3.2-3.4 0-6.2-.3-6.2s-.3-2 .1-4.5.4-4.8 0-5c-.4-.3-.4-2.2 0-4.4s.4-4.5 0-5.1c-.4-.7-.4-2.7 0-4.6.4-1.8.5-3.5.3-3.8-.3-.3-.4-3.1-.3-6.3.2-7.3.2-6.9.1-12.8-.1-2.8 0-7.8.1-11.3.2-3.4 0-6.2-.3-6.2s-.3-2 .1-4.5.4-4.8 0-5c-.4-.3-.4-2.2 0-4.4s.4-4.5 0-5.1c-.4-.7-.4-2.7 0-4.6.4-1.8.5-3.5.3-3.8-.3-.3-.4-3.1-.3-6.3.2-7.3.2-6.9.1-12.8-.1-2.8 0-7.8.1-11.3.2-3.4 0-6.2-.3-6.2s-.3-2 .1-4.5.4-4.8 0-5c-.4-.3-.4-2.2 0-4.4s.4-4.5-.1-5.2c-.4-.7-.5-1.7-.3-2.1.5-.7.5-3.5.3-11.1-.1-.6-.1-6.8 0-13.7 0-19.7-.3-22.5-4-34.9-4.3-14.2-15.2-29.6-27.8-39.1-4.8-3.7-17.9-10.4-23.1-11.9-2.5-.7-5.8-1.7-7.5-2.2-1.6-.6-7.7-1.2-13.5-1.5-5.8-.3-10.7-.6-11-.6-.3 0-.9 0-1.5.1-2.1.4-19.8.2-20.2-.2-.2-.3-1.9-.1-3.7.3-1.9.4-3.9.4-4.6 0-.6-.4-2.9-.4-5.1 0-2.2.4-4.1.4-4.4 0-.2-.4-2.5-.4-5 0s-4.5.4-4.5.1c0-.5-5.2-.5-14-.1-2.4.2-17.7.1-26.9 0-2.5-.1-4.8-.3-5.3-.6-.4-.3-.8-.2-.8.3 0 .4-2 .7-4.5.5l-4.4-.4.2-6.9c.1-3.8-.1-6.9-.4-6.9-.3 0-.3-2.3.1-5 .4-2.8.3-5.3 0-5.5-.4-.2-.4-2.1-.1-4.2.4-2.1.4-5.7 0-8.1-.3-2.3-.3-4.2 0-4.2.6 0 .5-12.7-.2-24.5-.7-10.8-5.5-19.2-14.4-25.4-7.3-5-19.3-6.3-28.3-3.1zm-72.6 216c12.2 4 22.8 15.2 26 27.3 1.8 6.5 1.3 20.6-.7 24.4-.9 1.6-1.8 3.5-2.1 4.3-2.1 5.4-11.6 14.8-18.1 17.9-6.3 3-7.6 3.3-16 3.6-8.2.4-15.8-1.4-21.7-5.1-5.1-3.1-13.8-11.9-13.8-14 0-.7-.4-1.4-.9-1.4-1.6 0-4.4-10.2-4.7-17.1-.4-9 1.5-16.3 5.9-23.4 1.9-3.1 11.3-12.6 11.9-12 .3.3 1.1-.1 1.8-1 .7-.8 2.1-1.5 3.1-1.5 1.1 0 1.9-.4 1.9-.9 0-2.7 20.3-3.5 27.4-1.1zm192 0c8.7 2.9 15.5 8.3 21.2 16.7 9.1 13.7 7.9 33.9-2.9 46.7-4.2 5.1-12.6 10.9-18.2 12.6-9.8 3-23.7 1.7-32.1-3.1-5.3-3-14.1-12.4-16.4-17.5-6.4-14-4.3-31.4 5.3-42.8 3.6-4.3 13.4-11.5 16.5-12.1.9-.2 1.7-.4 1.7-.5 0-.1.8-.3 1.8-.5 1.1-.2 2.1-.6 2.4-.8.9-1 17 0 20.7 1.3zM208.5 448c3.6-.3 6.5-.3 6.5 0 0 .4 16.6.4 18-.1.3-.1.8-.1 1.1-.1.8.1 10.1.2 11.9.1.8 0 3.4.1 5.7.2l4.2.1.1 5.4c0 3 .1 6.2 0 7.1 0 2.1.1 9.3.2 10.2 0 .3 0 2.5-.1 4.7l-.1 4.2-6.1.1c-3.3 0-6.4.3-7 .6-.5.4-.9.3-.9-.2 0-.4-2-.8-4.5-.8s-4.5.4-4.5.8c0 .5-.4.6-.9.3s-3.5-.6-6.7-.6c-9.4 0-9.7.1-13.9.1H206c-.8 0-4.3-.1-7.7-.1-5.9 0-6.3-.1-6.2-2.2v-6.1-5.2-5.3c-.1-2 0-5.7.2-8.2l.2-4.5 4.5-.5c2.5-.3 4.6-.3 4.8 0 .1.3 3.1.3 6.7 0zm91.2.3c2.7-.1 5-.3 5.3-.4.3-.1.9-.1 1.4 0 .7.2 8.1.1 12.6 0h7c3 0 6.3.1 7.3 0h10.2c.8 0 3.1.1 5 .2l3.5.1V462.5c.1 1.1 0 3.6 0 5.6-.1 1.9 0 3.9.1 4.5.1.5.1 2.4 0 4.1l-.1 3.3-5.9-.1c-3.3-.1-6.4.2-7 .5-.5.4-1.2.2-1.5-.2-.3-.5-2.6-.6-5.1-.2-2.5.4-4.7.4-5 .1-.2-.4-3.6-.4-7.5-.1-3.9.3-7.3.3-7.5-.1-.2-.3-2.7-.3-5.5.1-2.7.4-5 .4-5 .1 0-.3-3.1-.5-6.9-.4l-6.9.2-.4-4.4c-.2-2.5-.1-4.5.3-4.5.3 0 .3-2.3-.1-5-.4-2.8-.4-5-.1-5 .3 0 .5-2.9.3-6.4l-.4-6.5 3.4-.3c1.8-.2 3.4-.1 3.5.2.2.3 2.4.4 5 .3zm100.8-.3c3.6-.3 6.5-.3 6.5 0 0 .4 16.6.4 18-.1.3-.1.8-.1 1.1-.1.8.1 10.1.2 11.9.1.8 0 3.4.1 5.7.2l4.2.1.1 5.4c0 3 .1 6.2 0 7.1 0 2.1.1 9.3.2 10.2 0 .3 0 2.5-.1 4.7l-.1 4.2-6.1.1c-3.3 0-6.4.3-7 .6-.5.4-.9.3-.9-.2 0-.4-2-.8-4.5-.8s-4.5.4-4.5.8c0 .5-.4.6-.9.3s-3.5-.6-6.7-.6c-9.4 0-9.7.1-13.9.1H398c-.8 0-4.3-.1-7.7-.1-5.9 0-6.3-.1-6.2-2.2v-6.1-5.2-5.3c-.1-2 0-5.7.2-8.2l.2-4.5 4.5-.5c2.5-.3 4.6-.3 4.8 0 .1.3 3.1.3 6.7 0zM28.4 288c-.3.2-1.7.6-3.2.8C16.1 290 5.3 299.6 2 309.5c-2 6.1-2.1 7.6-1.8 76.6l.3 70.4 2.4 4.9c3.2 6.3 9.5 12.6 15.6 15.5 3.9 1.9 6.8 2.4 13.2 2.5 4.6.1 8.3.3 8.3.6s2.8.4 6.2.2c7.1-.3 15.3-.3 17.1.1.7.1 1-.5.8-1.3-.2-.8-.3-2-.3-2.5.1-2 .2-8 .1-9.5v-5c.1-1.9.1-4.2 0-5v-17.3-5.5c0-2 0-4.8.1-6.2.4-11 .4-22-.1-22-.3 0-.3-1.9 0-4.3.4-2.3.4-5.5.1-7.1-.3-1.6-.3-6.6 0-11.2s.3-8.4 0-8.4-.3-2.9 0-6.5.2-6.5-.1-6.5c-.4 0-.5-.8-.3-1.8.7-2.6 1-17.2.4-17.2-.3 0-.3-2.9 0-6.5s.2-6.5-.3-6.5c-.4 0-.6-.4-.2-.9.3-.5.5-4.9.5-9.8 0-14.2.1-21.5.2-22.2 0-.3 0-2.4-.1-4.7l-.1-4.1-4.7-.2c-2.7-.2-5.2-.3-5.8-.2-9.7.5-13.5.5-13.5.1 0-.6-11-.7-11.6 0zM575.6 287.8c-.2.4-.1 1.4.3 2.1.5.7.5 2.7.1 4.5-.4 1.7-.4 4 0 5.1.4 1.1.4 3.3 0 5-.4 1.7-.4 3.9 0 5s.6 2.3.3 2.7c-.2.4-.4 3.8-.3 7.5.1 3.8.1 7.6.1 8.5v5.5c0 2.1 0 4.9-.1 6.3-.5 12.3-.4 22 .3 22 .5 0 .5.4.2 1-.3.5-.5 3.3-.5 6.2.1 7.8.1 8.2.1 15.5 0 3.8 0 7.9-.1 9.3-.4 9.7-.4 14 .1 14 .3 0 .3 2-.1 4.5s-.3 4.8.2 5.1c.4.3.6 1 .2 1.5-.3.5-.5 3.4-.4 6.4.1 5.2.1 6.6-.1 9.7v19.3c0 2.7.1 5.8 0 6.7v10c0 .7.1 3 .2 5.1l.2 3.7h5.6c3.1 0 8.2.1 11.4.2 3.1.2 5.7 0 5.7-.3s2-.3 4.5.1 4.8.3 5.1-.1c.2-.5 1.1-.6 1.9-.3.8.3 4.3-.4 7.7-1.5 7.7-2.6 14.4-8.5 18.4-16.1l2.9-5.5v-145l-2.4-4.9c-3.2-6.3-9.5-12.6-15.6-15.5-3.9-1.9-6.8-2.4-13.2-2.5-4.6-.1-8.3-.3-8.3-.6s-2.8-.4-6.2-.2c-8.8.4-15.9.2-16.9-.3-.4-.3-1-.2-1.3.3z"/></svg>